<svg width="16" height="16" viewBox="0 0 16 16" fill="none" xmlns="http://www.w3.org/2000/svg">
<path d="M8.33844 13.3356L12.2151 15.8945C12.715 16.2224 13.3304 15.7346 13.1842 15.1348L12.0612 10.5447C12.0309 10.4175 12.0357 10.2839 12.0752 10.1594C12.1146 10.0349 12.1871 9.92454 12.2843 9.84101L15.761 6.82624C16.2148 6.4344 15.984 5.64272 15.3918 5.60274L10.8536 5.29886C10.7298 5.29137 10.6108 5.24654 10.5111 5.16985C10.4113 5.09317 10.3353 4.98794 10.2921 4.86704L8.59996 0.436842C8.55516 0.308816 8.47356 0.198222 8.36623 0.120071C8.2589 0.0419207 8.13104 0 8 0C7.86896 0 7.7411 0.0419207 7.63377 0.120071C7.52644 0.198222 7.44484 0.308816 7.40004 0.436842L5.70786 4.86704C5.66474 4.98794 5.58867 5.09317 5.48895 5.16985C5.38923 5.24654 5.27019 5.29137 5.14637 5.29886L0.608244 5.60274C0.015981 5.64272 -0.214771 6.4344 0.239041 6.82624L3.71571 9.84101C3.81288 9.92454 3.88537 10.0349 3.92484 10.1594C3.9643 10.2839 3.96913 10.4175 3.93877 10.5447L2.90038 14.799C2.72347 15.5187 3.46188 16.1025 4.05414 15.7106L7.66156 13.3356C7.76272 13.2687 7.88012 13.2332 8 13.2332C8.11988 13.2332 8.23728 13.2687 8.33844 13.3356Z" fill="#FF9900"/>
</svg>
